<svg width="640" height="480" viewBox="0 0 640 480" fill="none" xmlns="http://www.w3.org/2000/svg">
  <rect width="640" height="480" fill="#E8EEF1"/>
  <rect x="48" y="38" width="544" height="404" rx="28" fill="#F8FBFC"/>
  <rect x="72" y="62" width="496" height="356" rx="24" fill="#DCE7EC"/>
  <rect x="218" y="124" width="178" height="188" rx="26" fill="#1F2A33"/>
  <rect x="262" y="148" width="70" height="16" rx="8" fill="#27A9CF"/>
  <rect x="252" y="188" width="86" height="78" rx="18" fill="#0D151B"/>
  <path d="M396 166C425 166 446 189 446 218V242C446 267 425 286 400 286H388V250H398C408 250 416 242 416 232V223C416 210 406 200 393 200H386V166H396Z" fill="#1F2A33"/>
  <rect x="164" y="330" width="312" height="18" rx="9" fill="#C4D3DA"/>
  <text x="320" y="392" text-anchor="middle" fill="#5C6D78" font-family="Arial, Helvetica, sans-serif" font-size="26">Foto del cliente · Cocina</text>
</svg>
