<?xml version="1.0" encoding="UTF-8"?><svg id="Capa_1" xmlns="http://www.w3.org/2000/svg" viewBox="0 0 5369.5 949.32"><defs><style>.cls-1{fill:#19aad1;}.cls-2{fill:#ffdf00;}</style></defs><rect class="cls-1" x="0" y="-1.2" width="5369.5" height="949.32"/><g id="SvgjsG1086"><path class="cls-2" d="M1204.22,179.46c-50.4,0-98.4,12-141.6,36-24,14.4-45.6,31.2-64.8,50.4l-98.4,98.4-98.4-98.4c-19.2-19.2-40.8-36-64.8-50.4-43.2-24-93.6-36-141.6-36-163.2,0-295.2,132-295.2,295.2s132,295.2,295.2,295.2c50.4,0,98.4-12,141.6-36,24-14.4,45.6-28.8,64.8-50.4l98.4-98.4,98.4,98.4c19.2,19.2,40.8,36,64.8,50.4,43.2,24,93.6,36,141.6,36,163.2,0,295.2-132,295.2-295.2s-132-295.2-295.2-295.2ZM690.62,573.06c-9.6,9.6-19.2,16.8-31.2,24-21.6,12-43.2,16.8-67.2,16.8-76.8,0-136.8-62.4-136.8-136.8s62.4-136.8,136.8-136.8c24,0,45.6,4.8,67.2,16.8,12,7.2,21.6,14.4,31.2,24l98.4,98.4-98.4,93.6ZM1204.22,611.46c-24,0-45.6-4.8-67.2-16.8-12-7.2-21.6-14.4-31.2-24l-96-96,98.4-98.4c9.6-9.6,19.2-16.8,31.2-24,21.6-12,43.2-16.8,67.2-16.8,76.8,0,136.8,62.4,136.8,136.8,0,79.2-62.4,139.2-139.2,139.2Z"/></g><g id="SvgjsG1087"><path class="cls-2" d="M2091.23,537.96c0-13.68,0-99.94.53-106.78.53-1.58,1.58-4.73,3.68-4.73s3.16,1.05,3.68,2.63c21.04,41.03,39.45,82.06,58.39,122.04,2.63,5.79,8.42,22.62,9.99,24.2,2.1,3.16,5.79,2.1,8.94,2.1l57.86.53c6.84,0,8.42-4.21,6.84-9.99-4.21-15.78-34.19-71.54-41.03-85.22-4.73-10.52-36.3-71.54-37.35-76.27-1.05-2.1,6.84-5.79,7.89-7.36,25.25-22.62,47.87-45.76,52.6-81.01,5.26-34.72-2.63-72.59-25.25-100.47-17.36-20.51-39.98-32.61-66.8-34.19-16.31-1.05-32.09.53-48.39,0-14.2-.53-24.2-.53-42.08-.53-8.42,0-13.68,4.73-14.2,13.68v6.31c-1.05,40.5,0,81.01.53,120.98,0,61.02-1.05,221.98-1.05,245.13,0,6.84,1.05,8.42,7.36,8.42,3.68,0,7.89.53,11.57.53,14.73,0,23.67-.53,38.93-.53,11.57,0,7.36-18.94,7.36-39.45h0ZM2091.23,332.81l.53-53.13c.53-7.89-2.1-23.67,5.26-29.46,9.99-7.36,30.51,0,39.45,6.31,26.3,17.88,24.2,62.07,9.99,86.79-6.84,11.57-18.41,18.41-31.56,22.09-7.89,2.1-22.62,4.73-23.14-7.89,0-8.42-.53-24.72-.53-24.72h0ZM2333.83,469.57h-.53c0,13.15-.53,26.83,0,40.5.53,16.83,1.58,33.67,2.63,50.5,0,5.79,1.58,7.36,6.84,8.42,11.05,2.63,21.57,3.16,32.61,3.16,28.41-1.05,56.81,1.05,85.22,0,11.57-.53,16.83.53,28.41-1.58,10.52-2.1,14.2-7.89,14.2-23.67-1.05-9.99-.53-14.2-.53-26.3,0-17.36-12.1-23.14-22.62-22.62-7.36.53-42.61-.53-56.81-.53-23.67.53-19.99,3.68-19.99-21.04,0-19.99.53-45.76.53-66.28,0-11.05,1.05-14.73,11.57-14.73h65.75c10.52,1.58,17.88-5.79,17.88-16.83s1.05-11.57,1.05-22.62l-1.58-15.78c-1.05-8.94-4.21-12.1-13.15-12.1-5.79,0-11.57.53-17.36,1.05-22.62,1.58-33.14-1.58-55.23,0-7.36,0-8.42-1.05-8.94-7.89-2.1-20.51,0-43.13,2.1-63.65.53-8.42,2.63-9.99,10.52-10.52l74.17-.53c9.99-1.05,13.15-.53,12.62-10.52-1.05-15.25.53-31.04-1.05-46.29-1.05-8.42-3.68-9.99-13.15-9.99-15.78.53-19.46.53-35.24,1.58-15.78.53-78.9.53-94.16.53-22.09,0-23.67-1.58-24.2,25.25-1.05,21.04-.53,42.61-.53,64.17,0,36.82-2.1,168.85-1.05,198.31h0ZM2802.62,244.96c.53-17.36,0-31.56,0-48.39,0-19.46-35.24-17.36-47.87-16.83-56.28,3.68-109.94,39.45-135.71,88.37-7.36,14.2-12.62,28.93-16.31,44.19-8.94,35.77-9.47,73.64-5.26,109.94,3.68,34.19,12.62,68.38,33.67,95.74,36.3,47.87,103.1,64.7,160.44,55.76,2.63-.53,5.26-1.05,7.36-2.63,1.58-1.05,3.16-3.16,3.16-5.26l1.58-29.98c.53-9.47,0-8.94,0-18.41,0-12.62-26.3-3.16-42.61-3.16s-32.61-.53-46.82-7.89c-25.25-14.2-39.45-42.61-47.34-69.43-8.94-28.93-11.05-59.97-5.79-89.42,6.31-38.4,24.72-82.59,65.23-95.74,23.14-7.89,47.87-5.26,71.01-2.63,3.16.53,5.26-1.58,5.26-4.21h0ZM3172.52,279.68c11.05,32.61,13.68,67.86,13.68,102.57,0,28.93-5.26,56.81-12.62,84.69-9.47,33.14-25.25,63.12-53.65,82.59-21.04,15.25-43.13,25.25-68.91,27.88-3.68,0-6.84.53-10.52.53-3.16,0-6.31-.53-9.99-.53-25.77-2.63-47.87-12.62-69.43-27.88-27.88-19.46-44.19-49.45-53.13-82.59-7.89-27.88-12.62-55.76-12.62-84.69,0-34.72,2.63-69.96,13.68-102.57,19.46-56.28,73.12-96.26,131.5-97.31,58.39,1.05,112.04,41.03,132.03,97.31ZM3121.5,420.65c5.26-32.09,3.16-64.7-3.16-96.79-6.31-28.93-18.94-57.34-43.13-74.69-4.21-3.16-8.94-5.79-13.68-7.36-6.84-3.16-14.2-4.21-21.04-4.21s-13.68,1.05-20.51,4.21c-5.26,1.58-9.47,4.21-13.68,7.36-24.72,17.36-37.35,45.76-43.13,74.69-6.31,32.09-8.42,64.7-3.16,96.79,5.26,28.93,15.78,67.86,43.13,82.59,11.57,6.31,24.2,10.52,37.35,11.05,13.15-.53,26.3-4.73,37.87-11.05,27.35-14.73,37.87-53.65,43.13-82.59ZM3343.06,537.96c0-13.68,0-99.94.53-106.78.53-1.58,1.58-4.73,3.68-4.73s3.16,1.05,3.68,2.63c21.04,41.03,39.45,82.06,58.39,122.04,2.63,5.79,8.42,22.62,9.99,24.2,2.1,3.16,5.79,2.1,8.94,2.1l57.86.53c6.84,0,8.42-4.21,6.84-9.99-4.21-15.78-34.19-71.54-41.03-85.22-4.73-10.52-36.3-71.54-37.35-76.27-1.05-2.1,6.84-5.79,7.89-7.36,25.25-22.62,47.87-45.76,52.6-81.01,5.26-34.72-2.63-72.59-25.25-100.47-17.36-20.51-39.98-32.61-66.8-34.19-16.31-1.05-32.09.53-48.39,0-14.2-.53-24.2-.53-42.08-.53-8.42,0-13.68,4.73-14.2,13.68v6.31c-1.05,40.5,0,81.01.53,120.98,0,61.02-1.05,221.98-1.05,245.13,0,6.84,1.05,8.42,7.36,8.42,3.68,0,7.89.53,11.57.53,14.73,0,23.67-.53,38.93-.53,11.57,0,7.36-18.94,7.36-39.45h0ZM3343.06,332.81l.53-53.13c.53-7.89-2.1-23.67,5.26-29.46,9.99-7.36,30.51,0,39.45,6.31,26.3,17.88,24.2,62.07,9.99,86.79-6.84,11.57-18.41,18.41-31.56,22.09-7.89,2.1-22.62,4.73-23.14-7.89,0-8.42-.53-24.72-.53-24.72h0ZM3806.58,480.62c3.16-6.84,5.79-13.68,8.42-20.51,5.79-16.83,6.84-34.19,8.42-51.55,3.16-36.82,2.1-74.17-7.36-109.94-11.57-45.76-41.03-87.85-85.22-107.31-19.99-8.94-42.61-9.99-64.17-9.47-22.62,0-45.76-1.05-68.38,1.05-6.31.53-9.47,3.68-10.52,9.47-1.05,6.31-2.1,12.62-2.1,18.41,1.05,32.09,0,127.3,1.05,143.08.53,14.2-1.05,31.56-1.05,45.76.53,35.24,0,71.01,0,106.26,0,14.73-.53,28.93-.53,43.66,0,15.78-5.79,22.62,37.35,22.62,38.4,0,78.38-3.16,114.67-16.83,33.67-12.1,54.71-43.13,69.43-74.69ZM3653.51,425.92v-63.12c0-39.98,1.05-65.75-.53-99.42v-6.31c.53-11.05,2.1-11.57,13.68-11.57,15.25-.53,26.3,3.16,39.45,8.42,13.15,5.26,20.51,16.83,27.35,27.88,13.15,21.57,18.41,45.24,19.46,69.96.53,14.2,1.05,28.41,1.05,42.61,0,67.33-39.45,114.15-74.17,114.15-23.14,0-26.83,1.58-26.83-13.68s1.05-31.56,1.05-47.34c-.53-6.84-.53-14.2-.53-21.57h0ZM3917.15,469.57h-.53c0,13.15-.53,26.83,0,40.5.53,16.83,1.58,33.67,2.63,50.5,0,5.79,1.58,7.36,6.84,8.42,11.05,2.63,21.57,3.16,32.61,3.16,28.41-1.05,56.81,1.05,85.22,0,11.57-.53,16.83.53,28.41-1.58,10.52-2.1,14.2-7.89,14.2-23.67-1.05-9.99-.53-14.2-.53-26.3,0-17.36-12.1-23.14-22.62-22.62-7.36.53-42.61-.53-56.81-.53-23.67.53-19.99,3.68-19.99-21.04,0-19.99.53-45.76.53-66.28,0-11.05,1.05-14.73,11.57-14.73h65.75c10.52,1.58,17.88-5.79,17.88-16.83s1.05-11.57,1.05-22.62l-1.58-15.78c-1.05-8.94-4.21-12.1-13.15-12.1-5.79,0-11.57.53-17.36,1.05-22.62,1.58-33.14-1.58-55.23,0-7.36,0-8.42-1.05-8.94-7.89-2.1-20.51,0-43.13,2.1-63.65.53-8.42,2.63-9.99,10.52-10.52l74.17-.53c9.99-1.05,13.15-.53,12.62-10.52-1.05-15.25.53-31.04-1.05-46.29-1.05-8.42-3.68-9.99-13.15-9.99-15.78.53-19.46.53-35.24,1.58-15.78.53-78.9.53-94.16.53-22.09,0-23.67-1.58-24.2,25.25-1.05,21.04-.53,42.61-.53,64.17,0,36.82-2.1,168.85-1.05,198.31h0ZM4243.39,537.96c0-13.68,0-99.94.53-106.78.53-1.58,1.58-4.73,3.68-4.73s3.16,1.05,3.68,2.63c21.04,41.03,39.45,82.06,58.39,122.04,2.63,5.79,8.42,22.62,9.99,24.2,2.1,3.16,5.79,2.1,8.94,2.1l57.86.53c6.84,0,8.42-4.21,6.84-9.99-4.21-15.78-34.19-71.54-41.03-85.22-4.73-10.52-36.3-71.54-37.35-76.27-1.05-2.1,6.84-5.79,7.89-7.36,25.25-22.62,47.87-45.76,52.6-81.01,5.26-34.72-2.63-72.59-25.25-100.47-17.36-20.51-39.98-32.61-66.8-34.19-16.31-1.05-32.09.53-48.39,0-14.2-.53-24.2-.53-42.08-.53-8.42,0-13.68,4.73-14.2,13.68v6.31c-1.05,40.5,0,81.01.53,120.98,0,61.02-1.05,221.98-1.05,245.13,0,6.84,1.05,8.42,7.36,8.42,3.68,0,7.89.53,11.57.53,14.73,0,23.67-.53,38.93-.53,11.57,0,7.36-18.94,7.36-39.45h0ZM4243.39,332.81l.53-53.13c.53-7.89-2.1-23.67,5.26-29.46,9.99-7.36,30.51,0,39.45,6.31,26.3,17.88,24.2,62.07,9.99,86.79-6.84,11.57-18.41,18.41-31.56,22.09-7.89,2.1-22.62,4.73-23.14-7.89,0-8.42-.53-24.72-.53-24.72h0ZM4580.67,416.45l.53,153.6c0,5.79,5.26,7.89,9.47,7.89h48.39c8.94,0,8.94-7.89,8.94-11.57,0-49.45,0-102.57,2.1-152.55,0-8.42,1.05-16.31,5.26-24.2,4.73-7.89,74.69-164.12,82.59-189.89,1.05-3.68,3.16-9.99-.53-13.15-6.31-5.79-31.56-3.16-46.82-3.16-9.47,0-15.25,3.68-19.46,13.15-17.88,41.56-36.3,82.59-54.71,124.14-1.58,3.68-3.68,3.68-6.31,0-5.79-9.47-43.13-102.05-48.92-122.56-1.05-2.63-1.58-5.26-3.16-7.36-7.36-8.42-19.46-7.36-29.46-7.36-13.15,0-22.62.53-35.24.53-8.42,0-8.94,7.89-7.36,14.73.53,2.63,2.1,5.26,3.16,7.36,19.99,37.87,76.27,163.07,86.27,186.74,5.26,11.05,4.73,11.57,5.26,23.67h0ZM4938.47,180.26c-9.99.53-19.99,2.1-29.98,5.26-21.57,7.36-41.03,22.09-54.18,41.03-11.57,17.36-16.31,37.87-17.88,58.39-1.05,15.78.53,32.09,7.89,46.29,7.89,15.25,21.57,28.41,33.14,41.03,10.52,11.05,21.04,22.09,32.61,32.09,10.52,9.99,22.62,17.88,33.14,28.41,15.25,15.25,21.04,49.97,9.99,68.91-13.15,21.04-44.19,24.2-64.7,17.36-10.52-3.68-19.99-11.57-28.93-17.88-5.26-3.68-11.57-5.26-15.25,1.05-2.1,3.16-3.16,6.84-4.21,9.99-3.68,13.15-8.42,25.25-8.94,39.45-.53,16.31,30.51,21.04,42.08,23.67,51.55,12.1,113.62,2.63,140.45-48.39,5.26-10.52,8.94-21.57,11.05-33.14.53-4.21,1.05-7.89,1.05-12.1,2.1-33.67-11.57-62.07-32.09-87.32-22.09-27.35-49.97-46.29-75.75-69.96-15.78-14.73-21.57-37.87-16.83-58.91,4.73-22.62,30.51-28.41,49.97-22.62,5.79,1.58,10.52,4.21,15.78,7.36,3.16,1.58,6.31,3.68,10.52,3.68,7.36.53,8.42-5.26,9.99-11.05,3.68-13.15,9.99-23.67,12.62-36.3,2.63-14.2-8.94-16.83-20.51-20.51-13.68-3.68-26.83-6.31-41.03-5.79h0Z"/></g><g id="SvgjsG1088"><path class="cls-2" d="M2343.57,689.57v23.98h-24.16v16.22c0,13.29,8.8,20.01,21.57,20.01,1.55,0,2.93-.17,4.14-.35s2.24-.35,3.45-.52v23.98c-1.55.17-2.76.52-3.62.69-1.04.17-2.76.17-5,.17-26.05,0-46.41-17.77-46.41-44v-63.84h25.88v23.64s24.16,0,24.16,0ZM2473.12,686.63h25.88v43.14c0,26.4-18.29,44-44,44s-44-18.46-44-44v-43.14h25.88v43.14c0,11.56,5.87,20.01,18.12,20.01s18.12-8.28,18.12-20.01v-43.14ZM2724.79,729.77c-.69-12.6-6.38-20.01-19.5-20.01-3.62,0-6.73.52-9.32,1.55-7.94,3.62-10.87,10.35-10.87,18.63,0,2.76.35,5.35,1.21,7.59,2.59,8.97,10.35,12.25,18.98,12.25,13.11,0,19.5-7.07,19.5-20.01ZM2757.57,772.9h-25.88c-1.73-4.31-3.28-8.63-4.31-13.11-5.87,9.66-14.84,13.98-25.88,13.98-24.67,0-42.27-20.71-42.27-44.34,0-27.26,20.36-43.65,46.07-43.65,27.43,0,44.69,17.6,45.38,44,.17,2.24.17,4.83.17,7.94,0,12.08,1.9,24.16,6.73,35.2h0ZM2848.81,729.77c0,12.77,6.38,20.01,19.32,20.01,3.62,0,6.9-.52,9.49-1.73,4.83-1.9,8.11-5.52,9.83-10.53.69-2.42,1.04-5,1.04-7.76s-.35-5.35-1.04-7.76c-1.9-5.35-4.83-8.28-9.83-10.7-2.59-1.04-5.87-1.55-9.49-1.55-12.94,0-19.32,7.25-19.32,20.01ZM2848.81,764.28v43.14h-25.88v-77.64c0-27.61,19.5-44,45.55-44s45.9,17.43,45.9,43.83c0,24.5-18.46,44.17-42.96,44.17-5,0-9.32-.86-12.94-2.59-3.8-1.55-7.07-3.97-9.66-6.9h0ZM3007.34,729.77c0,12.77,6.38,20.01,19.32,20.01,3.62,0,6.9-.52,9.49-1.73,4.83-1.9,8.11-5.52,9.83-10.53.69-2.42,1.04-5,1.04-7.76s-.35-5.35-1.04-7.76c-1.9-5.35-4.83-8.28-9.83-10.7-2.59-1.04-5.87-1.55-9.49-1.55-12.94,0-19.32,7.25-19.32,20.01ZM3007.34,764.28v43.14h-25.88v-77.64c0-27.61,19.5-44,45.55-44s45.9,17.43,45.9,43.83c0,24.5-18.46,44.17-42.96,44.17-5,0-9.32-.86-12.94-2.59-3.8-1.55-7.07-3.97-9.66-6.9h0ZM3293.52,729.77c0-12.94-6.38-20.01-19.5-20.01-3.62,0-6.73.52-9.32,1.55-4.83,2.24-8.11,5.52-9.66,10.7-.86,2.42-1.21,5-1.21,7.76s.35,5.35,1.21,7.76c1.38,5,5,8.63,9.66,10.53,2.59,1.21,5.69,1.73,9.32,1.73,13.11,0,19.5-7.07,19.5-20.01ZM3293.52,695.26v-43.14h25.88v77.64c0,27.43-19.5,44-45.55,44s-45.9-17.25-45.9-43.65c0-24.33,17.94-44.34,42.45-44.34,9.14,0,17.08,2.59,23.12,9.49h0ZM3414.96,719.42c2.59.86,5.52,1.55,8.63,1.9,3.11.52,6.04.69,8.8.69,3.45,0,12.25-.69,12.25-5.69,0-5.35-7.59-5.52-11.39-5.52-7.59,0-14.15,1.73-18.29,8.63ZM3463.79,745.99v24.16c-9.66,2.24-19.32,3.8-29.33,3.8-27.43,0-47.79-16.05-47.79-43.83s19.67-44.34,45.72-44.34c17.77,0,38.3,8.45,38.3,28.64s-21.74,27.43-38.48,27.43c-6.38,0-12.77-1.73-18.63-4.14,3.45,9.66,13.8,11.22,22.78,11.22,4.66,0,9.32-.17,13.98-.86,4.31-.35,9.32-.86,13.46-2.07h0ZM3686.82,721.14c0-9.14-8.8-11.39-16.39-11.39s-16.39,2.24-16.39,11.39,8.8,11.39,16.39,11.39,16.39-2.24,16.39-11.39ZM3679.91,789.29c0-5.87-4.14-8.11-9.49-8.11s-9.49,2.24-9.49,8.11,4.14,8.11,9.49,8.11,9.49-2.24,9.49-8.11ZM3703.21,789.29c0,18.29-17.08,25.88-32.78,25.88s-32.78-8.28-32.78-25.88c0-12.94,9.49-21.74,21.57-24.5v-9.32c-5-.86-9.32-2.42-13.11-4.66-11.22-5.87-17.94-17.08-17.94-29.68,0-23.81,21.22-35.37,42.27-35.37,9.32,0,17.25,1.73,23.81,5.35,6.73-3.28,13.29-4.49,20.71-4.49h6.73v20.88h-7.59c-1.21.17-2.59.35-3.97.69,1.73,3.97,2.59,8.28,2.59,12.94,0,18.46-13.29,30.54-30.19,34.16v9.66c11.56,3.28,20.71,11.73,20.71,24.33h0ZM3846.56,729.77c-.69-12.6-6.38-20.01-19.5-20.01-3.62,0-6.73.52-9.32,1.55-7.94,3.62-10.87,10.35-10.87,18.63,0,2.76.35,5.35,1.21,7.59,2.59,8.97,10.35,12.25,18.98,12.25,13.11,0,19.5-7.07,19.5-20.01ZM3879.34,772.9h-25.88c-1.73-4.31-3.28-8.63-4.31-13.11-5.87,9.66-14.84,13.98-25.88,13.98-24.67,0-42.27-20.71-42.27-44.34,0-27.26,20.36-43.65,46.07-43.65,27.43,0,44.69,17.6,45.38,44,.17,2.24.17,4.83.17,7.94,0,12.08,1.9,24.16,6.73,35.2h0ZM3970.58,729.77v43.14h-25.88v-42.96c0-28.64,21.05-44.17,47.62-44.17.86,0,2.07,0,3.28.17s2.59.52,3.8.69v25.02c-.86-.17-1.9-.35-3.11-.52s-2.24-.35-3.11-.35c-4.31,0-7.76.52-10.7,1.38-4.83,1.73-9.14,5-10.7,10.18-.86,2.24-1.21,4.83-1.21,7.42ZM4126.18,729.77c-.69-12.6-6.38-20.01-19.5-20.01-3.62,0-6.73.52-9.32,1.55-7.94,3.62-10.87,10.35-10.87,18.63,0,2.76.35,5.35,1.21,7.59,2.59,8.97,10.35,12.25,18.98,12.25,13.11,0,19.5-7.07,19.5-20.01ZM4158.96,772.9h-25.88c-1.73-4.31-3.28-8.63-4.31-13.11-5.87,9.66-14.84,13.98-25.88,13.98-24.67,0-42.27-20.71-42.27-44.34,0-27.26,20.36-43.65,46.07-43.65,27.43,0,44.69,17.6,45.38,44,.17,2.24.17,4.83.17,7.94,0,12.08,1.9,24.16,6.73,35.2h0ZM4312.32,729.77v43.14h-25.88v-43.14c0-11.91-5.52-20.01-18.12-20.01s-18.12,8.28-18.12,20.01v43.14h-25.88v-43.14c0-26.57,18.29-44,44-44s44,18.29,44,44ZM4431.85,689.57v23.98h-24.16v16.22c0,13.29,8.8,20.01,21.57,20.01,1.55,0,2.93-.17,4.14-.35s2.24-.35,3.45-.52v23.98c-1.55.17-2.76.52-3.62.69-1.04.17-2.76.17-5,.17-26.05,0-46.41-17.77-46.41-44v-63.84h25.88v23.64h24.16ZM4501.18,686.63h25.88v86.27h-25.88v-86.27ZM4514.12,678.52c-8.8,0-15.01-6.21-15.01-15.01s6.21-14.84,15.01-14.84,14.84,5.87,14.84,14.84-5.69,15.01-14.84,15.01ZM4660.75,729.77c-.69-12.6-6.38-20.01-19.5-20.01-3.62,0-6.73.52-9.32,1.55-7.94,3.62-10.87,10.35-10.87,18.63,0,2.76.35,5.35,1.21,7.59,2.59,8.97,10.35,12.25,18.98,12.25,13.11,0,19.5-7.07,19.5-20.01h0ZM4693.53,772.9h-25.88c-1.73-4.31-3.28-8.63-4.31-13.11-5.87,9.66-14.84,13.98-25.88,13.98-24.67,0-42.27-20.71-42.27-44.34,0-27.26,20.36-43.65,46.07-43.65,27.43,0,44.69,17.6,45.38,44,.17,2.24.17,4.83.17,7.94,0,12.08,1.9,24.16,6.73,35.2h0Z"/></g></svg>